<?xml version="1.0" encoding="UTF-8" standalone="no" ?>
<!DOCTYPE svg PUBLIC "-//W3C//DTD SVG 1.1//EN" "http://www.w3.org/Graphics/SVG/1.1/DTD/svg11.dtd">
<svg xmlns="http://www.w3.org/2000/svg" xmlns:xlink="http://www.w3.org/1999/xlink" version="1.1" width="1080" height="1080" viewBox="0 0 1080 1080" xml:space="preserve">
<desc>Created with Fabric.js 5.2.4</desc>
<defs>
</defs>
<g transform="matrix(1 0 0 1 540 540)" id="ff600006-8f26-4120-bf48-2e7f82de0e9f"  >
<rect style="stroke: none; stroke-width: 1; stroke-dasharray: none; stroke-linecap: butt; stroke-dashoffset: 0; stroke-linejoin: miter; stroke-miterlimit: 4; fill: rgb(0,0,0); fill-rule: nonzero; opacity: 1;" vector-effect="non-scaling-stroke"  x="-540" y="-540" rx="0" ry="0" width="1080" height="1080" />
</g>
<g transform="matrix(1 0 0 1 540 540)" id="75be9254-055d-40d7-94d6-3c7bf89d86eb"  >
</g>
<g transform="matrix(1 0 0 1 540 540)" id="eb8af65e-a162-490a-9525-50374a6442fa"  >
<path style="stroke: rgb(0,0,0); stroke-width: 0; stroke-dasharray: none; stroke-linecap: butt; stroke-dashoffset: 0; stroke-linejoin: miter; stroke-miterlimit: 4; fill: rgb(255,255,255); fill-rule: nonzero; opacity: 1;" vector-effect="non-scaling-stroke"  transform=" translate(-240.12, -64.94)" d="M 92.497 55.588 L 52.141 55.588 C 51.09922922277021 55.58855207786089 50.25499985371545 56.433229076485674 50.254999999999995 57.475 L 50.254999999999995 77.205 C 50.254999999999995 78.247 51.099999999999994 79.093 52.141 79.093 L 67.884 79.093 L 67.884 103.608 C 67.884 103.608 64.349 104.812 54.576 104.812 C 43.046 104.812 26.94 100.6 26.94 65.18199999999999 C 26.94 29.755999999999986 43.712 25.094999999999985 59.45700000000001 25.094999999999985 C 73.087 25.094999999999985 78.959 27.494999999999983 82.69500000000001 28.650999999999986 C 83.86900000000001 29.008999999999986 84.95500000000001 27.840999999999987 84.95500000000001 26.799999999999986 L 89.45700000000001 7.735999999999986 C 89.45700000000001 7.247999999999987 89.292 6.660999999999986 88.73700000000001 6.262999999999987 C 87.22 5.18 77.963 0 54.576 0 C 27.636 0 0 11.463 0 66.563 C 0 121.664 31.64 129.875 58.303 129.875 C 80.37899999999999 129.875 93.771 120.441 93.771 120.441 C 94.32300000000001 120.137 94.383 119.36500000000001 94.383 119.012 L 94.383 57.475 C 94.38326530838233 56.97462846124997 94.18467943691765 56.49466003847955 93.83095706726053 56.14075011719483 C 93.47723469760341 55.7868401959101 92.99737160908629 55.58799992966374 92.497 55.588 M 300.475 6.602 C 300.4795278831197 6.101665059432796 300.28441864848486 5.620165882667224 299.932873393342 5.264116043368754 C 299.5813281381991 4.908066204070285 299.1023520356028 4.706842537948784 298.60200000000003 4.705 L 275.879 4.705 C 275.3780046543448 4.707117244924315 274.89837035106655 4.908169715960169 274.5456134534032 5.263927203927963 C 274.1928565557398 5.619684691895757 273.9958737694209 6.101004692399457 273.99800000000005 6.602 L 274.00300000000004 50.516000000000005 L 238.58500000000004 50.516000000000005 L 238.58500000000004 6.602 C 238.58500000000004 5.5520000000000005 237.74900000000002 4.705 236.70900000000003 4.705 L 213.98700000000002 4.705 C 212.94545547337563 4.71160818526333 212.10601394733118 5.560446444808287 212.11100000000002 6.602 L 212.11100000000002 125.506 C 212.11100000000002 126.554 212.954 127.408 213.98700000000002 127.408 L 236.70900000000003 127.408 C 237.74900000000002 127.408 238.58500000000004 126.554 238.58500000000004 125.506 L 238.58500000000004 74.646 L 274.00300000000004 74.646 L 273.94200000000006 125.506 C 273.94200000000006 126.554 274.7830000000001 127.408 275.82500000000005 127.408 L 298.6 127.408 C 299.64000000000004 127.408 300.47200000000004 126.554 300.47400000000005 125.506 z M 135.376 22.205 C 135.376 14.024 128.816 7.411999999999999 120.723 7.411999999999999 C 112.638 7.411999999999999 106.073 14.024 106.073 22.205 C 106.073 30.378999999999998 112.63799999999999 37.009 120.723 37.009 C 128.816 37.009 135.376 30.379 135.376 22.205 M 133.751 100.42399999999999 L 133.751 45.537 C 133.751 44.496 132.911 43.644 131.871 43.644 L 109.221 43.644 C 108.181 43.644 107.251 44.714 107.251 45.757 L 107.251 124.393 C 107.251 126.703 108.691 127.391 110.555 127.391 L 130.96300000000002 127.391 C 133.20200000000003 127.391 133.75100000000003 126.29100000000001 133.75100000000003 124.35600000000001 z M 386.832 43.821999999999996 L 364.284 43.821999999999996 C 363.24899999999997 43.821999999999996 362.408 44.67399999999999 362.408 45.724 L 362.408 104.025 C 362.408 104.025 356.678 108.21700000000001 348.548 108.21700000000001 C 340.418 108.21700000000001 338.26 104.52700000000002 338.26 96.56700000000001 L 338.26 45.723 C 338.26 44.673 337.42 43.821 336.385 43.821 L 313.5 43.821 C 312.468 43.821 311.621 44.672999999999995 311.621 45.723 L 311.621 100.41499999999999 C 311.621 124.06099999999999 324.79999999999995 129.84699999999998 342.929 129.84699999999998 C 357.804 129.84699999999998 369.796 121.62899999999998 369.796 121.62899999999998 C 369.796 121.62899999999998 370.366 125.95999999999998 370.626 126.47299999999997 C 370.883 126.98499999999997 371.556 127.50299999999997 372.284 127.50299999999997 L 386.843 127.43899999999998 C 387.875 127.43899999999998 388.721 126.58499999999998 388.721 125.53999999999998 L 388.713 45.722999999999985 C 388.713 44.67299999999999 387.87100000000004 43.820999999999984 386.83200000000005 43.820999999999984 M 439.56800000000004 108.14499999999998 C 431.74600000000004 107.90599999999998 426.44100000000003 104.35799999999998 426.44100000000003 104.35799999999998 L 426.44100000000003 66.703 C 426.44100000000003 66.703 431.67400000000004 63.495000000000005 438.096 62.922000000000004 C 446.216 62.19500000000001 454.04 64.647 454.04 84.018 C 454.04 104.443 450.51000000000005 108.475 439.56800000000004 108.145 M 448.461 41.150999999999996 C 435.654 41.150999999999996 426.944 46.866 426.944 46.866 L 426.944 6.602 C 426.944 5.5520000000000005 426.10400000000004 4.705 425.069 4.705 L 402.281 4.705 C 401.78053429209484 4.707645148820908 401.30161793177666 4.908994810631911 400.949610634122 5.264752852001591 C 400.59760333646733 5.620510893371271 400.40134079619065 6.101534366578054 400.404 6.601999999999999 L 400.404 125.506 C 400.404 126.556 401.245 127.409 402.284 127.409 L 418.094 127.409 C 418.806 127.409 419.34499999999997 127.04100000000001 419.74399999999997 126.39800000000001 C 420.13699999999994 125.75900000000001 420.70399999999995 120.91700000000002 420.70399999999995 120.91700000000002 C 420.70399999999995 120.91700000000002 430.02099999999996 129.746 447.65999999999997 129.746 C 468.36999999999995 129.746 480.24499999999995 119.242 480.24499999999995 82.59100000000001 C 480.24499999999995 45.94100000000001 461.27699999999993 41.15100000000001 448.46099999999996 41.15100000000001 M 199.05799999999996 43.63300000000001 L 182.01299999999998 43.63300000000001 L 181.98699999999997 21.11400000000001 C 181.98699999999997 20.26200000000001 181.54899999999998 19.836000000000013 180.56199999999995 19.836000000000013 L 157.33499999999995 19.836000000000013 C 156.43299999999996 19.836000000000013 155.94699999999995 20.234000000000012 155.94699999999995 21.10200000000001 L 155.94699999999995 44.372000000000014 C 155.94699999999995 44.372000000000014 144.30699999999996 47.18100000000001 143.52099999999996 47.40900000000001 C 142.7141773418875 47.64235240568666 142.158886450073 48.38110945118439 142.15899999999996 49.22100000000001 L 142.15899999999996 63.84400000000001 C 142.15899999999996 64.894 142.99899999999997 65.74400000000001 144.03799999999995 65.74400000000001 L 155.94799999999995 65.74400000000001 L 155.94799999999995 100.92200000000001 C 155.94799999999995 127.05000000000001 174.27499999999995 129.61700000000002 186.64199999999994 129.61700000000002 C 192.29399999999993 129.61700000000002 199.05399999999995 127.80200000000002 200.16999999999993 127.39000000000001 C 200.84499999999994 127.14200000000001 201.23799999999994 126.44400000000002 201.23799999999994 125.68600000000002 L 201.25699999999995 109.60000000000002 C 201.25699999999995 108.55000000000003 200.36999999999995 107.70000000000002 199.37299999999996 107.70000000000002 C 198.37899999999996 107.70000000000002 195.83799999999997 108.10500000000002 193.22199999999995 108.10500000000002 C 184.84999999999997 108.10500000000002 182.01199999999994 104.21300000000002 182.01199999999994 99.17500000000001 L 182.01199999999994 65.743 L 199.05799999999994 65.743 C 199.5594350739074 65.74061923585614 200.03937125033568 65.53907000024859 200.39215716407338 65.18272059243272 C 200.74494307781112 64.82637118461683 200.9416587773172 64.34443367685633 200.93899999999994 63.842999999999996 L 200.93899999999994 45.528 C 200.93899999999994 44.478 200.09699999999992 43.632999999999996 199.05799999999994 43.632999999999996" stroke-linecap="round" />
</g>
</svg>